<?xml version="1.0" standalone="no"?>
<!DOCTYPE svg PUBLIC "-//W3C//DTD SVG 20010904//EN"
 "http://www.w3.org/TR/2001/REC-SVG-20010904/DTD/svg10.dtd">
<svg version="1.0" xmlns="http://www.w3.org/2000/svg"
 width="16.000000pt" height="16.000000pt" viewBox="0 0 16.000000 16.000000"
 preserveAspectRatio="xMidYMid meet">
<metadata>
Created by potrace 1.11, written by Peter Selinger 2001-2013
</metadata>
<g transform="translate(0.000000,16.000000) scale(0.001633,-0.001633)"
fill="#000000" stroke="none">
<path d="M6278 9545 c-2 -2 -46 -6 -98 -9 -52 -4 -115 -9 -140 -11 -25 -3 -74
-7 -110 -10 -81 -7 -111 -10 -186 -19 -79 -10 -115 -15 -324 -52 -80 -14 -210
-40 -290 -59 -80 -18 -156 -36 -170 -39 -168 -35 -688 -209 -920 -309 -14 -5
-27 -11 -30 -12 -3 -1 -31 -13 -64 -28 -32 -15 -61 -27 -63 -27 -8 0 -396
-195 -468 -235 -38 -21 -72 -43 -73 -47 -2 -4 -7 -6 -12 -3 -5 3 -15 -1 -22
-9 -8 -7 -30 -21 -48 -31 -49 -25 -242 -146 -258 -162 -7 -7 -18 -13 -23 -13
-7 0 -84 -51 -124 -83 -5 -4 -55 -39 -110 -78 -101 -70 -158 -114 -181 -136
-7 -7 -15 -13 -19 -13 -4 0 -12 -6 -19 -12 -14 -14 -57 -49 -119 -97 -22 -17
-60 -50 -87 -73 -26 -24 -70 -63 -99 -86 -121 -103 -436 -415 -541 -538 -14
-16 -56 -65 -94 -108 -38 -44 -73 -85 -77 -90 -14 -17 -79 -100 -92 -116 -7
-9 -28 -36 -48 -60 -20 -25 -79 -106 -132 -180 -53 -74 -100 -139 -104 -145
-12 -15 -65 -97 -78 -120 -6 -11 -28 -47 -49 -80 -87 -133 -206 -338 -206
-353 0 -6 -3 -12 -8 -14 -7 -3 -159 -305 -205 -408 -13 -30 -34 -76 -45 -101
-25 -55 -82 -197 -84 -209 -1 -3 -13 -34 -28 -70 -43 -102 -171 -490 -195
-590 -2 -8 -19 -78 -39 -155 -35 -139 -48 -198 -49 -222 0 -7 -3 -13 -7 -13
-3 0 -6 -8 -7 -17 -1 -25 -8 -71 -32 -203 -12 -63 -24 -130 -26 -147 -10 -65
-14 -99 -20 -148 -3 -27 -7 -66 -10 -85 -8 -61 -20 -190 -32 -355 -16 -215 -9
-754 13 -980 3 -33 7 -83 8 -111 2 -28 5 -55 8 -60 2 -5 6 -29 7 -54 3 -47 7
-77 15 -120 3 -14 8 -47 12 -75 8 -63 11 -83 18 -120 4 -16 9 -46 12 -65 3
-19 7 -42 9 -50 3 -8 7 -33 11 -55 7 -43 8 -48 17 -85 4 -14 9 -36 11 -50 7
-38 27 -118 60 -245 2 -5 6 -28 11 -50 4 -22 11 -47 16 -56 4 -9 10 -27 13
-40 3 -13 9 -37 15 -54 27 -86 73 -232 76 -245 9 -36 118 -318 175 -452 65
-155 62 -151 116 -124 19 11 18 15 -38 146 -62 142 -64 147 -80 195 -5 17 -14
39 -18 50 -34 80 -135 385 -170 510 -42 149 -72 266 -76 294 -2 19 -6 37 -9
41 -2 4 -7 22 -10 41 -3 19 -10 50 -15 69 -5 19 -11 46 -14 60 -2 14 -12 66
-21 115 -17 88 -20 109 -29 190 -3 22 -6 40 -6 40 -3 0 -9 40 -16 95 -3 30 -8
69 -10 85 -2 17 -6 59 -9 95 -4 36 -8 81 -10 100 -14 140 -20 303 -19 545 0
340 9 512 40 765 22 178 23 192 29 225 3 17 6 37 6 45 1 8 5 34 10 58 5 23 11
57 14 75 2 17 11 70 21 117 20 106 22 114 24 118 3 3 5 9 15 62 10 52 12 59
14 63 2 1 4 13 6 27 4 32 103 388 115 415 9 20 22 61 26 80 1 6 12 35 24 65
12 30 22 57 22 60 1 12 40 122 63 175 7 17 27 68 45 115 18 47 45 111 61 143
15 31 28 60 28 62 0 5 22 53 69 155 9 19 21 38 26 42 6 4 7 8 3 8 -7 0 74 160
96 188 5 6 7 12 3 12 -3 0 7 22 23 49 16 27 44 75 61 107 50 91 212 349 222
352 4 2 8 8 8 14 0 5 18 35 40 66 22 31 46 65 53 75 67 100 332 446 357 467 3
3 35 39 70 80 102 120 126 145 305 325 170 170 238 233 331 312 27 23 60 51
74 63 14 12 45 39 70 59 25 20 47 38 50 41 3 3 21 17 40 31 19 15 45 35 58 45
43 36 100 78 232 174 158 113 488 320 511 320 5 0 9 3 9 8 0 4 10 12 23 18 12
6 56 29 99 52 107 58 396 203 411 206 7 2 48 20 92 40 44 21 134 58 200 83 66
25 136 54 155 63 19 10 38 18 43 19 25 3 64 15 75 24 6 5 12 7 12 4 0 -4 29 5
65 18 58 22 422 130 471 139 10 2 80 18 154 34 74 17 149 33 165 37 17 3 41 8
55 11 14 3 36 7 50 9 52 8 96 16 110 20 9 3 40 7 70 10 30 2 66 7 80 10 14 3
45 7 70 10 25 3 59 6 75 9 81 10 136 16 200 21 39 2 108 8 155 12 177 14 871
6 968 -12 9 -1 51 -6 92 -9 136 -13 219 -23 270 -32 14 -3 39 -7 55 -9 78 -11
119 -17 138 -21 12 -3 33 -6 47 -8 14 -2 36 -7 50 -10 14 -3 36 -8 50 -10 14
-2 61 -12 105 -21 44 -9 88 -19 98 -20 9 -2 20 -6 25 -8 4 -3 23 -8 42 -11
118 -19 573 -161 815 -254 123 -47 361 -148 401 -171 11 -5 71 -35 134 -65 63
-30 152 -75 198 -100 l82 -44 15 29 c21 40 21 42 -11 61 -53 31 -428 216 -504
248 -41 18 -93 40 -115 50 -188 83 -586 218 -853 289 -84 23 -161 41 -171 41
-10 0 -21 3 -25 7 -3 4 -12 8 -19 9 -7 1 -32 5 -57 9 -24 4 -48 9 -53 12 -4 3
-18 6 -30 8 -12 2 -74 13 -137 24 -108 20 -131 24 -205 36 -31 5 -85 12 -145
19 -19 3 -35 5 -35 6 0 1 -22 3 -50 6 -27 2 -66 6 -85 9 -19 3 -75 7 -125 10
-49 3 -101 8 -115 11 -26 6 -756 15 -762 9z"/>
<path d="M2985 5722 c-3 -3 -5 -40 -5 -83 0 -68 2 -77 20 -82 11 -3 22 -1 25
4 3 4 16 5 28 1 12 -4 60 -7 107 -6 l85 1 0 -1281 0 -1281 -132 -3 -133 -3 0
-83 0 -84 315 1 c173 0 315 3 316 6 1 3 2 41 3 84 l1 77 -100 1 c-55 1 -112 0
-126 -1 l-27 -1 -1 1138 c0 626 -2 1159 -3 1186 -2 26 -1 47 2 47 3 0 31 -47
63 -104 32 -57 64 -109 72 -116 8 -7 13 -16 10 -20 -3 -4 2 -13 10 -20 8 -7
15 -17 15 -22 0 -5 13 -28 29 -51 47 -68 421 -695 421 -706 0 -6 4 -11 8 -11
5 0 16 -15 25 -32 38 -76 400 -678 407 -678 4 0 22 27 41 60 18 33 37 60 42
60 4 0 7 5 7 12 0 6 23 47 50 90 28 43 50 81 50 84 0 3 15 29 34 57 30 45 253
410 310 507 11 19 24 37 28 38 4 2 8 8 8 13 0 5 56 101 125 215 69 113 125
210 125 215 0 5 4 9 9 9 5 0 11 6 13 13 2 6 44 79 93 160 50 81 99 166 111
189 l21 42 0 -1187 -1 -1187 -20 -1 c-12 -1 -61 -2 -111 -3 -49 -2 -95 -3
-101 -4 -15 -2 -15 -150 -1 -159 11 -7 628 -6 634 1 4 4 6 104 4 152 -1 8 -40
12 -133 11 l-133 -2 -2 147 c-3 183 -6 730 -5 828 1 8 1 260 1 560 -1 300 0
552 0 560 0 8 0 119 0 246 l0 231 111 0 c60 1 120 2 133 2 22 1 23 4 21 79 -1
42 -2 80 -3 83 -1 7 -299 10 -323 3 -10 -3 -46 -53 -80 -110 -80 -133 -78
-131 -111 -181 -15 -24 -27 -45 -27 -49 0 -3 -8 -18 -19 -32 -18 -26 -274
-448 -444 -732 -45 -74 -85 -136 -89 -138 -4 -2 -8 -8 -8 -13 0 -6 -15 -34
-32 -63 -18 -28 -38 -61 -45 -72 -6 -10 -60 -98 -119 -194 -59 -96 -116 -192
-127 -212 -24 -44 -31 -46 -49 -14 -24 45 -82 141 -87 146 -3 3 -15 21 -25 40
-11 19 -31 53 -45 75 -14 22 -26 42 -26 45 0 3 -16 30 -35 61 -19 30 -40 64
-47 75 -340 562 -443 735 -443 743 0 5 -3 11 -7 13 -7 2 -327 529 -343 563
-25 53 -25 53 -198 52 -89 0 -164 -2 -167 -5z"/>
<path d="M6990 5644 c0 -60 4 -84 13 -85 6 0 79 -2 161 -2 l150 -2 0 -1277 c0
-703 -4 -1281 -8 -1285 -4 -4 -75 -7 -159 -8 l-152 0 -3 -82 c-2 -62 0 -83 10
-84 66 -3 811 0 814 4 3 2 6 40 7 83 l1 79 -154 1 c-85 1 -162 2 -171 3 -14 1
-15 129 -15 1284 l0 1284 160 1 c89 0 166 1 171 1 6 1 10 35 9 83 l-1 83 -417
1 -416 1 0 -83z"/>
<path d="M6478 4468 c-60 -12 -106 -48 -133 -103 -79 -160 88 -324 249 -245
68 33 101 86 100 167 0 76 -33 130 -97 161 -55 27 -74 30 -119 20z"/>
</g>
</svg>
