<?xml version="1.0" encoding="utf-8"?>
<!-- Generator: Adobe Illustrator 21.0.0, SVG Export Plug-In . SVG Version: 6.00 Build 0)  -->
<svg version="1.1" id="Layer_1" xmlns="http://www.w3.org/2000/svg" xmlns:xlink="http://www.w3.org/1999/xlink" x="0px" y="0px"
	 viewBox="0 0 245.2 232.8" style="enable-background:new 0 0 245.2 232.8;" xml:space="preserve">
<style type="text/css">
	.st0{fill:none;stroke:#000000;stroke-width:2;stroke-miterlimit:10;}
</style>
<path class="st0" d="M15.5,232.4C6.2,211.9,1,189,1,165C1,74.4,74.4,1,165,1c28.9,0,56.1,7.5,79.7,20.6"/>
<g>
	<g>
		<path d="M138.8,95.7h8.4v4.2h-6.6v64.4h6.8v4.2h-16.2v-4.2h6.1v-55.6c0-0.1,0-0.3,0-0.7c0-0.4,0.1-0.8,0.1-1.3c0-0.5,0-0.9,0-1.3
			c0-0.4,0-0.7,0-0.8c-0.2,0.3-0.4,0.7-0.6,1.2c-0.2,0.5-0.5,1-0.9,1.5c-1.2,2.1-2.8,4.8-4.9,8.2c-2,3.4-4.2,7-6.6,10.9
			c-2.3,3.9-4.7,7.8-7.2,11.8c-2.4,4-4.6,7.6-6.6,10.9c-3.8-6.2-6.9-11.5-9.5-15.9c-2.6-4.4-4.9-8.2-6.8-11.4
			c-1.9-3.2-3.6-6-5.1-8.4c-1.4-2.4-2.8-4.6-4.2-6.9l-1-2c0,0.8,0,1.5,0,2.1c0,0.7,0.1,1.3,0.1,2v55.6h6.3v4.2H74.6v-4.2h6.6V99.9
			h-6.6v-4.2h8.4c0.6,1,1.5,2.5,2.7,4.5c1.2,2,2.6,4.2,4.1,6.8c1.5,2.6,3.2,5.3,5,8.4c1.8,3,3.6,6.1,5.5,9.1
			c1.9,3.1,3.7,6.1,5.5,9.1c1.8,3,3.5,5.7,5,8.3c4.7-7.7,9.3-15.4,14-23.1C129.5,111.1,134.1,103.4,138.8,95.7z"/>
		<path d="M174.9,164.3h8.1V99.9h-8.1v-4.2h20.8v4.2h-8.5v64.4h8.5v4.2h-20.8V164.3z"/>
	</g>
	<circle cx="162.9" cy="131.8" r="4.7"/>
</g>
</svg>
